#N canvas 799 27 1068 648 24;
#X obj 353 -23 gemhead;
#X msg 62 14 create;
#X msg 28 -27 destroy;
#X obj 355 98 pix_video;
#X obj 352 246 pix_texture;
#X obj 352 286 rectangle 4 3;
#X obj 352 159 pix_threshold;
#X msg 504 111 0.96;
#X obj 490 71 loadbang;
#X obj 352 202 pix_blob;
#X floatatom 500 205 9 0 0 0 - - -;
#X floatatom 629 39 5 0 0 0 - - -;
#X obj 635 82 bng 15 250 50 0 empty empty empty 17 7 0 10 -262144 -1
-1;
#X obj 620 110 spigot;
#X obj 717 90 tgl 15 0 empty empty empty 17 7 0 10 -262144 -1 -1 1
1;
#X obj 626 268 s acendeu;
#X msg 704 38 0;
#X msg 765 37 1;
#X obj 626 156 t b b b;
#X obj -29 551 pix_texture;
#N canvas 0 0 450 300 (subpatch) 0;
#X array som0 882000 float 2;
#X coords 0 1.02 882000 -1.02 200 130 1;
#X restore 603 399 graph;
#X obj 395 546 +~ 1;
#X obj 395 664 dac~;
#X obj 396 624 *~ 1;
#X obj 787 534 loadbang;
#X obj 856 651 soundfiler;
#X msg 372 427 0;
#X msg 535 430 0;
#X obj 478 356 bng 15 250 50 0 empty empty empty 17 7 0 10 -262144
-1 -1;
#X obj 487 390 t b b;
#X obj 605 338 r acendeu;
#X msg 97 101 border 0;
#X obj -9 676 rectangle 5 3.75;
#X obj 209 23 t b b b;
#X msg 103 228 cursor 0;
#X msg 87 60 1;
#X obj 180 -8 bng 15 250 50 0 empty empty empty 17 7 0 10 -262144 -1
-1;
#N canvas 419 98 537 490 filme 0;
#X obj 61 280 pix_film;
#X msg 101 194 auto 1;
#X msg 215 205 0;
#X obj 203 291 bng 15 250 50 0 empty empty empty 17 7 0 10 -262144
-1 -1;
#X msg 103 234 auto 0;
#X obj 239 283 t b b;
#X obj 141 438 outlet;
#X obj 184 104 r acendeu;
#X obj 64 111 gemhead;
#X obj -9 67 inlet;
#X obj 166 383 spigot;
#X obj 377 347 tgl 15 0 empty empty empty 17 7 0 10 -262144 -1 -1 0
1;
#X msg 331 298 1;
#X msg 393 307 0;
#X obj 393 264 r cut;
#X obj 340 92 inlet;
#X obj 193 146 t b b;
#X connect 0 0 10 0;
#X connect 0 2 3 0;
#X connect 1 0 0 0;
#X connect 2 0 0 1;
#X connect 3 0 5 0;
#X connect 4 0 0 0;
#X connect 5 0 2 0;
#X connect 5 1 4 0;
#X connect 7 0 16 0;
#X connect 8 0 0 0;
#X connect 9 0 0 0;
#X connect 10 0 6 0;
#X connect 11 0 10 1;
#X connect 12 0 11 0;
#X connect 13 0 11 0;
#X connect 14 0 13 0;
#X connect 15 0 12 0;
#X connect 16 0 1 0;
#X connect 16 1 2 0;
#X restore -173 511 pd filme;
#X obj 133 383 bng 15 250 50 0 empty empty empty 17 7 0 10 -262144
-1 -1;
#X obj 200 387 s cut;
#X obj -30 365 t i b;
#X obj -40 328 random 3;
#X obj -44 402 select 0 1 2;
#X obj -14 304 bng 15 250 50 0 empty empty empty 17 7 0 10 -262144
-1 -1;
#X obj 836 276 s muda;
#X obj 19 289 r muda;
#X obj 131 337 s proximo;
#X obj 487 621 r proximo;
#X floatatom 159 296 5 0 0 0 - - -;
#X obj -172 344 loadbang;
#X obj 813 -8 loadbang;
#X obj -27 589 translate 0.3 0 0 1;
#X msg 99 147 offset 0 0;
#X obj -200 -29 key;
#X obj -196 15 select 102;
#X obj -200 62 tgl 15 0 empty empty empty 17 7 0 10 -262144 -1 -1 1
1;
#X obj -163 55 select 1;
#X obj -161 100 bng 15 250 50 0 empty empty empty 17 7 0 10 -262144
-1 -1;
#X obj -54 100 bng 15 250 50 0 empty empty empty 17 7 0 10 -262144
-1 -1;
#X obj -193 555 key;
#X obj -190 694 tgl 15 0 empty empty empty 17 7 0 10 -262144 -1 -1
1 1;
#X obj -150 675 loadbang;
#N canvas 0 0 450 300 (subpatch) 0;
#X array som1 882000 float 2;
#X coords 0 1.02 881999 -1.02 200 130 1;
#X restore 813 399 graph;
#N canvas 0 0 450 300 (subpatch) 0;
#X array som2 882000 float 2;
#X coords 0 1.02 881999 -1.02 200 130 1;
#X restore 1017 398 graph;
#X obj 489 661 select 0 1 2;
#X msg 628 544 set som0;
#X msg 644 585 set som1;
#X msg 671 625 set som2;
#X obj 395 585 tabread4~ som0;
#X obj -193 594 select 118;
#X obj 768 237 t b b;
#X msg -177 474 open fogo1_20.mov;
#X msg -63 439 open fogo2_20.mov;
#X msg 87 475 open fogo3_20.mov;
#X msg 918 534 read fogo1_20.wav som0;
#X msg 775 571 read fogo2_20.wav som1;
#X msg 919 607 read fogo3_20.wav som2;
#X obj 395 508 *~ 882000;
#X msg 435 429 0.05;
#X obj 318 381 delay 19700;
#X msg 102 189 dimen 800 600;
#N canvas 263 35 537 490 filme 0;
#X obj 61 280 pix_film;
#X msg 101 194 auto 1;
#X msg 215 205 0;
#X obj 203 291 bng 15 250 50 0 empty empty empty 17 7 0 10 -262144
-1 -1;
#X msg 103 234 auto 0;
#X obj 239 283 t b b;
#X obj 141 438 outlet;
#X obj 184 104 r acendeu;
#X obj 64 111 gemhead;
#X obj -9 67 inlet;
#X obj 166 383 spigot;
#X obj 377 347 tgl 15 0 empty empty empty 17 7 0 10 -262144 -1 -1 1
1;
#X msg 331 298 1;
#X msg 393 307 0;
#X obj 393 264 r cut;
#X obj 340 92 inlet;
#X obj 193 146 t b b;
#X connect 0 0 10 0;
#X connect 0 2 3 0;
#X connect 1 0 0 0;
#X connect 2 0 0 1;
#X connect 3 0 5 0;
#X connect 4 0 0 0;
#X connect 5 0 2 0;
#X connect 5 1 4 0;
#X connect 7 0 16 0;
#X connect 8 0 0 0;
#X connect 9 0 0 0;
#X connect 10 0 6 0;
#X connect 11 0 10 1;
#X connect 12 0 11 0;
#X connect 13 0 11 0;
#X connect 14 0 13 0;
#X connect 15 0 12 0;
#X connect 16 0 1 0;
#X connect 16 1 2 0;
#X restore -35 511 pd filme;
#N canvas 263 35 537 490 filme 0;
#X obj 61 280 pix_film;
#X msg 101 194 auto 1;
#X msg 215 205 0;
#X obj 203 291 bng 15 250 50 0 empty empty empty 17 7 0 10 -262144
-1 -1;
#X msg 103 234 auto 0;
#X obj 239 283 t b b;
#X obj 141 438 outlet;
#X obj 184 104 r acendeu;
#X obj 64 111 gemhead;
#X obj -9 67 inlet;
#X obj 166 383 spigot;
#X obj 377 347 tgl 15 0 empty empty empty 17 7 0 10 -262144 -1 -1 0
1;
#X msg 331 298 1;
#X msg 393 307 0;
#X obj 393 264 r cut;
#X obj 340 92 inlet;
#X obj 193 146 t b b;
#X connect 0 0 10 0;
#X connect 0 2 3 0;
#X connect 1 0 0 0;
#X connect 2 0 0 1;
#X connect 3 0 5 0;
#X connect 4 0 0 0;
#X connect 5 0 2 0;
#X connect 5 1 4 0;
#X connect 7 0 16 0;
#X connect 8 0 0 0;
#X connect 9 0 0 0;
#X connect 10 0 6 0;
#X connect 11 0 10 1;
#X connect 12 0 11 0;
#X connect 13 0 11 0;
#X connect 14 0 13 0;
#X connect 15 0 12 0;
#X connect 16 0 1 0;
#X connect 16 1 2 0;
#X restore 103 512 pd filme;
#X msg -178 637 1;
#X obj -27 630 spigot 1;
#X obj -213 192 loadbang;
#X msg -193 127 1;
#X obj -47 207 gemwin 25;
#X msg -185 243 \; pd dsp 1;
#X obj 396 468 phasor~ 0;
#X obj 684 197 delay 22000;
#X obj 613 -18 moses 5e-05;
#X msg 419 30 device 1;
#X connect 0 0 3 0;
#X connect 1 0 87 0;
#X connect 2 0 87 0;
#X connect 3 0 6 0;
#X connect 4 0 5 0;
#X connect 6 0 9 0;
#X connect 7 0 6 1;
#X connect 8 0 7 0;
#X connect 9 0 4 0;
#X connect 9 3 10 0;
#X connect 10 0 91 0;
#X connect 11 0 12 0;
#X connect 12 0 13 0;
#X connect 13 0 18 0;
#X connect 14 0 13 1;
#X connect 16 0 14 0;
#X connect 17 0 14 0;
#X connect 18 0 15 0;
#X connect 18 1 90 0;
#X connect 18 2 16 0;
#X connect 19 0 51 0;
#X connect 21 0 68 0;
#X connect 23 0 22 0;
#X connect 23 0 22 1;
#X connect 24 0 74 0;
#X connect 24 0 75 0;
#X connect 24 0 76 0;
#X connect 26 0 89 0;
#X connect 27 0 89 1;
#X connect 28 0 29 0;
#X connect 28 0 79 0;
#X connect 29 0 78 0;
#X connect 29 1 27 0;
#X connect 30 0 28 0;
#X connect 31 0 87 0;
#X connect 33 0 35 0;
#X connect 33 1 1 0;
#X connect 33 2 31 0;
#X connect 33 2 52 0;
#X connect 33 2 80 0;
#X connect 33 2 34 0;
#X connect 34 0 87 0;
#X connect 35 0 87 0;
#X connect 36 0 33 0;
#X connect 37 0 19 0;
#X connect 38 0 39 0;
#X connect 40 0 42 0;
#X connect 40 1 38 0;
#X connect 41 0 40 0;
#X connect 41 0 46 0;
#X connect 41 0 48 0;
#X connect 42 0 37 1;
#X connect 42 1 81 1;
#X connect 42 2 82 1;
#X connect 43 0 41 0;
#X connect 45 0 43 0;
#X connect 47 0 64 0;
#X connect 49 0 71 0;
#X connect 49 0 72 0;
#X connect 49 0 73 0;
#X connect 49 0 37 1;
#X connect 50 0 17 0;
#X connect 51 0 84 0;
#X connect 52 0 87 0;
#X connect 53 0 54 0;
#X connect 54 0 55 0;
#X connect 55 0 56 0;
#X connect 56 0 57 0;
#X connect 56 1 58 0;
#X connect 57 0 2 0;
#X connect 58 0 36 0;
#X connect 59 0 69 0;
#X connect 60 0 84 1;
#X connect 61 0 83 0;
#X connect 64 0 65 0;
#X connect 64 1 66 0;
#X connect 64 2 67 0;
#X connect 65 0 68 0;
#X connect 66 0 68 0;
#X connect 67 0 68 0;
#X connect 68 0 23 0;
#X connect 69 0 60 0;
#X connect 70 0 17 0;
#X connect 70 1 44 0;
#X connect 71 0 37 0;
#X connect 72 0 81 0;
#X connect 73 0 82 0;
#X connect 74 0 25 0;
#X connect 75 0 25 0;
#X connect 76 0 25 0;
#X connect 77 0 21 0;
#X connect 78 0 89 0;
#X connect 79 0 26 0;
#X connect 80 0 87 0;
#X connect 81 0 19 0;
#X connect 82 0 19 0;
#X connect 83 0 60 0;
#X connect 84 0 32 0;
#X connect 85 0 86 0;
#X connect 85 0 88 0;
#X connect 86 0 55 0;
#X connect 89 0 77 0;
#X connect 90 0 70 0;
#X connect 91 1 11 0;
#X connect 92 0 3 0;
